<svg xmlns="http://www.w3.org/2000/svg" aria-hidden="true" style="position:absolute;width:0;height:0;overflow:hidden">
  <defs>
  	<symbol id="icon-close" viewBox="0 0 32 32">
			<path stroke-linejoin="round" stroke-linecap="round" stroke-miterlimit="4" stroke-width="2.2857" d="M22.667 9.333l-13.333 13.333M9.333 9.333l13.333 13.333"></path>
		</symbol>
		<symbol id="icon-star" viewBox="0 0 34 32">
			<path d="M14.89 2.282c0.737-2.268 3.945-2.268 4.682 0l2.080 6.402c0.33 1.014 1.275 1.701 2.341 1.701h6.731c2.384 0 3.376 3.051 1.447 4.453l-5.446 3.957c-0.863 0.627-1.224 1.738-0.894 2.752l2.080 6.402c0.737 2.268-1.859 4.154-3.788 2.752l-5.446-3.957c-0.863-0.627-2.031-0.627-2.894 0l-5.446 3.957c-1.929 1.402-4.525-0.484-3.788-2.752l2.080-6.402c0.33-1.014-0.031-2.125-0.894-2.752l-5.446-3.957c-1.929-1.402-0.938-4.453 1.447-4.453h6.731c1.066 0 2.012-0.687 2.341-1.701l2.080-6.402z"></path>
		</symbol>
		<symbol id="icon-heart" viewBox="0 0 32 32">
			<path stroke-linejoin="round" stroke-linecap="round" stroke-miterlimit="4" stroke-width="2.4" d="M27.787 6.147c-0.681-0.681-1.49-1.222-2.38-1.591s-1.844-0.559-2.807-0.559c-0.963 0-1.917 0.19-2.807 0.559s-1.699 0.909-2.38 1.591l-1.413 1.413-1.413-1.413c-1.376-1.376-3.241-2.148-5.187-2.148s-3.811 0.773-5.187 2.148c-1.376 1.376-2.148 3.241-2.148 5.187s0.773 3.811 2.148 5.187l11.787 11.787 11.787-11.787c0.681-0.681 1.222-1.49 1.591-2.38s0.559-1.844 0.559-2.807c0-0.963-0.19-1.917-0.559-2.807s-0.909-1.699-1.591-2.38z"></path>
		</symbol>
		<symbol id="icon-delete" viewBox="0 0 32 32">
			<path d="M9.333 28q-1.1 0-1.883-0.783t-0.783-1.883v-17.333h-1.333v-2.667h6.667v-1.333h8v1.333h6.667v2.667h-1.333v17.333q0 1.1-0.783 1.883t-1.883 0.783h-13.333zM22.667 8h-13.333v17.333h13.333v-17.333zM12 22.667h2.667v-12h-2.667v12zM17.333 22.667h2.667v-12h-2.667v12zM9.333 8v0z"></path>
		</symbol>
		<symbol id="quote" viewBox="0 0 34 32">
			<path fill="#f4f4f4" opacity="0.2" style="fill: var(--color1, #f4f4f4)" d="M32 16c0 8.837-7.163 16-16 16s-16-7.163-16-16c0-8.837 7.163-16 16-16s16 7.163 16 16z"></path>
			<path fill="#f4f4f4" style="fill: var(--color1, #f4f4f4)" d="M24.729 11.907c-0.268-0.313-0.746-0.354-1.066-0.093l-2.099 1.723-0.965-2.337c-0.034-0.088-0.086-0.161-0.146-0.226-0.197-0.429-0.54-0.797-1.012-1.010-0.205-0.091-0.417-0.14-0.628-0.164-0.047-0.024-0.089-0.055-0.142-0.071l-3.694-1.006c-0.207-0.055-0.416-0.020-0.586 0.078-0.203 0.067-0.377 0.211-0.46 0.42l-1.391 3.495c-0.151 0.38 0.042 0.809 0.432 0.959 0.388 0.147 0.828-0.042 0.98-0.424l1.175-2.951 1.683 0.457c-0.041 0.065-0.085 0.126-0.119 0.195l-2.157 4.568c-0.031 0.067-0.048 0.135-0.070 0.205l-2.621 4.294-4.387 1.434c-0.497 0.363-0.602 1.046-0.235 1.531 0.369 0.486 1.071 0.589 1.566 0.231l4.489-1.511c0.137-0.098 0.237-0.225 0.313-0.363 0.056-0.058 0.121-0.105 0.164-0.178l1.563-2.56 2.774 2.31-2.968 3.268c-0.409 0.451-0.368 1.145 0.095 1.543 0.462 0.402 1.17 0.36 1.582-0.093l3.704-4.078c0.115-0.126 0.184-0.271 0.23-0.422 0.028-0.082 0.028-0.168 0.034-0.253 0-0.043 0.017-0.082 0.013-0.122-0.010-0.299-0.134-0.589-0.385-0.796l-2.553-2.127c0.184-0.171 0.34-0.375 0.453-0.614l1.654-3.499 0.53 1.379c0.022 0.122 0.064 0.243 0.153 0.343 0.080 0.093 0.182 0.155 0.29 0.198 0.011 0.005 0.024 0.007 0.038 0.010 0.069 0.024 0.139 0.047 0.211 0.050 0.085 0.008 0.172-0.003 0.259-0.027 0.002-0.001 0.003-0.001 0.003-0.001 0.023-0.005 0.047-0.001 0.070-0.011 0.123-0.046 0.217-0.122 0.298-0.212l3.013-2.499c0.32-0.263 0.185-0.729-0.084-1.042z"></path>
			<path fill="#f4f4f4" style="fill: var(--color1, #f4f4f4)" d="M20.919 10.126c1.166 0 2.111-0.924 2.111-2.063s-0.945-2.063-2.111-2.063c-1.166 0-2.111 0.924-2.111 2.063s0.945 2.063 2.111 2.063z"></path>
		</symbol>
		<symbol id="commas" viewBox="0 0 32 32">
			<path fill="#f4f4f4" style="fill: var(--color1, #f4f4f4)" d="M8.2 17.469c1.546-0.612 2.785-0.452 3.719 0.481s1.21 2.421 0.831 4.462c-0.292 1.517-0.933 2.683-1.925 3.5-0.963 0.788-2.085 1.181-3.369 1.181-1.75 0-2.96-0.671-3.631-2.012-0.671-1.371-0.802-3.208-0.394-5.512 0.233-1.254 0.613-2.523 1.137-3.806s1.225-2.596 2.1-3.937c0.875-1.342 2.012-2.508 3.412-3.5s2.946-1.633 4.638-1.925l-0.438 4.638c-1.429 0.292-2.698 1.035-3.806 2.231-1.108 1.167-1.867 2.567-2.275 4.2zM21.369 17.469c1.546-0.612 2.785-0.452 3.719 0.481s1.21 2.421 0.831 4.462c-0.292 1.517-0.933 2.683-1.925 3.5-0.962 0.788-2.085 1.181-3.369 1.181-1.75 0-2.96-0.671-3.631-2.012-0.671-1.371-0.802-3.208-0.394-5.512 0.233-1.254 0.612-2.523 1.138-3.806s1.225-2.596 2.1-3.937c0.875-1.342 2.012-2.508 3.412-3.5s2.946-1.633 4.637-1.925l-0.437 4.638c-1.429 0.292-2.698 1.035-3.806 2.231-1.108 1.167-1.867 2.567-2.275 4.2z"></path>
		</symbol>
		<symbol id="gym" viewBox="0 0 34 32">
			<path fill="#242424" style="fill: var(--color1, #242424)" d="M32 16c0 8.837-7.163 16-16 16s-16-7.163-16-16c0-8.837 7.163-16 16-16s16 7.163 16 16z"></path>
			<path fill="#f4f4f4" style="fill: var(--color2, #f4f4f4)" d="M10.6 11.714h-1.2c-0.332 0-0.6 0.287-0.6 0.643v2.786h-0.6c-0.11 0-0.2 0.096-0.2 0.214v1.286c0 0.118 0.090 0.214 0.2 0.214h0.6v2.786c0 0.356 0.268 0.643 0.6 0.643h1.2c0.332 0 0.6-0.287 0.6-0.643v-7.286c0-0.356-0.268-0.643-0.6-0.643zM23.8 15.143h-0.6v-2.786c0-0.356-0.267-0.643-0.6-0.643h-1.2c-0.332 0-0.6 0.287-0.6 0.643v7.286c0 0.356 0.267 0.643 0.6 0.643h1.2c0.332 0 0.6-0.287 0.6-0.643v-2.786h0.6c0.11 0 0.2-0.096 0.2-0.214v-1.286c0-0.118-0.090-0.214-0.2-0.214zM19.4 10h-1.2c-0.332 0-0.6 0.287-0.6 0.643v4.5h-3.2v-4.5c0-0.356-0.268-0.643-0.6-0.643h-1.2c-0.332 0-0.6 0.287-0.6 0.643v10.714c0 0.356 0.268 0.643 0.6 0.643h1.2c0.332 0 0.6-0.287 0.6-0.643v-4.5h3.2v4.5c0 0.356 0.267 0.643 0.6 0.643h1.2c0.332 0 0.6-0.287 0.6-0.643v-10.714c0-0.356-0.267-0.643-0.6-0.643z"></path>
		</symbol>
  </defs>
</svg>
<svg aria-hidden="true" style="position: absolute; width: 0; height: 0; overflow: hidden;" version="1.1" xmlns="http://www.w3.org/2000/svg" xmlns:xlink="http://www.w3.org/1999/xlink">
<defs>
<symbol id="icon-star" viewBox="0 0 32 32">
<path d="M14.254 13.505l0.363 0.372-4.466-12.797 5.321 12.466 0.018-0.52 0.441-13.027 0.441 13.026 0.018 0.52 5.321-12.466-4.466 12.797 9.465-9.702-8.787 10.32 12.331-5.628-11.922 6.449 13.531-0.793-13.446 1.707 12.904 4.148-13.155-3.266 10.534 8.53-11.087-7.798 6.741 11.759-7.521-11.276 2.038 13.4-2.94-13.232-2.94 13.232 2.038-13.4-7.521 11.276 6.741-11.759-11.087 7.798 10.534-8.53-13.155 3.266 12.904-4.148-13.446-1.707 13.531 0.793-11.922-6.449 12.331 5.628-8.787-10.32 9.102 9.33zM15.185 14.071l-0.646 0.4-0.458 0.607-0.208 0.731 0.070 0.757 0.339 0.68 0.562 0.512 0.709 0.275h0.76l0.709-0.275 0.562-0.512 0.339-0.68 0.070-0.757-0.208-0.731-0.458-0.607-0.646-0.4-0.747-0.14-0.747 0.14z"></path>
</symbol>
</defs>
</svg>
