<?xml version="1.0" encoding="UTF-8"?>
<svg xmlns="http://www.w3.org/2000/svg" xmlns:xlink="http://www.w3.org/1999/xlink" width="0"
	height="0">

	<symbol id="logo" viewBox="0 0 176 32">
		<path
			d="M6.64 17.707l-6.64-11.040h3.973l4.453 7.653h0.053l4.453-7.653h3.973l-6.64 11.040v7.627h-3.627v-7.627zM16.893 22.267v-12.533l3.067-3.067h9.6l3.067 3.067v12.533l-3.067 3.067h-9.6l-3.067-3.067zM27.64 22.24l1.36-1.36v-9.76l-1.36-1.36h-5.76l-1.36 1.36v9.76l1.36 1.36h5.76zM35.165 22.133v-15.467h3.627v14.213l1.36 1.36h5.227l1.36-1.36v-14.213h3.627v15.467l-3.2 3.2h-8.8l-3.2-3.2zM67.837 19.147v6.187h-3.627v-5.36l-1.6-1.787h-5.813v7.147h-3.627v-18.667h11.707l2.853 2.88v5.653l-1.813 1.84 1.92 2.107zM56.797 15.2h6.427l0.933-0.933v-3.627l-0.933-0.933h-6.427v5.493zM77.097 6.667h13.493v3.067h-9.867v4.72h9.093v3.013h-9.093v4.8h9.867v3.067h-13.493v-18.667zM92.603 6.667h3.253l8.32 12.667h0.053v-12.667h3.493v18.667h-3.253l-8.32-12.64h-0.053v12.64h-3.493v-18.667zM110.531 6.667h13.493v3.067h-9.867v4.72h9.093v3.013h-9.093v4.8h9.867v3.067h-13.493v-18.667zM140.703 19.147v6.187h-3.627v-5.36l-1.6-1.787h-5.813v7.147h-3.627v-18.667h11.707l2.853 2.88v5.653l-1.813 1.84 1.92 2.107zM129.663 15.2h6.427l0.933-0.933v-3.627l-0.933-0.933h-6.427v5.493zM143.097 22.267v-12.533l3.067-3.067h9.28l3.013 3.013v2.853h-3.627v-1.52l-1.253-1.253h-5.493l-1.36 1.36v9.76l1.36 1.36h5.547l1.307-1.307v-2.907h-4v-3.093h7.52v7.333l-3.067 3.067h-9.227l-3.067-3.067zM165.104 17.707l-6.64-11.040h3.973l4.453 7.653h0.053l4.453-7.653h3.973l-6.64 11.040v7.627h-3.627v-7.627z"></path>
	</symbol>

	<svg id="icon-close" fill="none" viewBox="0 0 32 32">
		<path stroke="#F4F4F4" stroke-linecap="round" stroke-linejoin="round" stroke-width="2"
			d="M24 8 8 24M8 8l16 16" />
	</svg>

	<symbol id="burger-menu" fill="none" viewBox="0 0 32 32">
		<path stroke="#242424" stroke-linecap="round" stroke-linejoin="round" stroke-width="2"
			d="M28 13.33H4M28 8H4m24 10.67H4M28 24H4" />
	</symbol>

	<!-- #region Social icons -->


	<symbol id="icon-facebook" viewBox="0 0 32 32">
		<path
			d="M19.52 4.64c0.24 0 0.48 0 0.96 0v3.6c-0.24 0-0.72 0-1.2 0s-0.96 0-1.2 0.24c-0.24 0.24-0.24 0.48-0.24 1.040 0 0.48 0 0.8 0 1.28h2.64v3.040h-2.64v13.2h-4.080v-13.28h-2.16v-3.040h2.16v-1.040c0-1.76 0.24-3.040 0.72-3.6 0.72-1.040 2.16-1.52 4.32-1.52 0.24 0.080 0.48 0.080 0.72 0.080z"></path>
	</symbol>
	<symbol id="icon-instagram" viewBox="0 0 32 32">
		<path
			d="M28.717 10.756c-0.016-1.074-0.215-2.14-0.596-3.145-0.667-1.716-2.024-3.073-3.743-3.737-0.994-0.373-2.044-0.573-3.108-0.596-1.368-0.061-1.801-0.078-5.273-0.078s-3.917 0-5.274 0.078c-1.062 0.023-2.112 0.223-3.106 0.596-1.719 0.664-3.078 2.021-3.743 3.737-0.374 0.992-0.576 2.041-0.596 3.101-0.061 1.367-0.080 1.8-0.080 5.265s0 3.909 0.080 5.265c0.021 1.062 0.222 2.109 0.596 3.104 0.667 1.714 2.024 3.071 3.744 3.735 0.989 0.386 2.040 0.605 3.106 0.639 1.369 0.061 1.803 0.080 5.274 0.080s3.916 0 5.274-0.080c1.062-0.021 2.113-0.221 3.108-0.595 1.719-0.666 3.076-2.022 3.743-3.737 0.374-0.994 0.574-2.041 0.596-3.104 0.061-1.365 0.080-1.798 0.080-5.265-0.003-3.466-0.003-3.906-0.082-5.264zM15.99 22.531c-3.631 0-6.572-2.936-6.572-6.561s2.941-6.561 6.572-6.561c3.628 0 6.572 2.936 6.572 6.561s-2.944 6.561-6.572 6.561zM22.823 10.696c-0.849 0-1.532-0.684-1.532-1.53s0.684-1.53 1.532-1.53c0.846 0 1.531 0.684 1.531 1.53s-0.685 1.53-1.531 1.53z"></path>
		<path
			d="M15.992 19.976c2.211 0 4.004-1.793 4.004-4.004s-1.793-4.004-4.004-4.004c-2.211 0-4.004 1.793-4.004 4.004s1.793 4.004 4.004 4.004z"></path>
	</symbol>
	<symbol id="icon-youtube" viewBox="0 0 32 32">
		<path
			d="M24.24 6c-1.36-0.080-4.16-0.16-8.4-0.16h-0.56c-4.080 0-6.8 0.080-8.16 0.24-1.84 0.16-3.12 0.64-3.84 1.28-0.64 0.56-1.12 1.6-1.28 2.96-0.080 0.88-0.16 2.72-0.16 5.52v0.4c0 2.64 0.080 4.48 0.24 5.36 0.24 1.28 0.64 2.24 1.44 2.8 0.8 0.64 2.16 1.040 4.080 1.2 1.36 0.080 4.16 0.16 8.4 0.16h0.56c4.080 0 6.8-0.080 8.16-0.24 1.84-0.16 3.12-0.64 3.84-1.28 0.64-0.56 1.12-1.6 1.28-2.96 0.080-0.88 0.16-2.72 0.16-5.52v-0.4c0-2.64-0.080-4.48-0.24-5.36-0.24-1.28-0.64-2.24-1.44-2.8-0.8-0.64-2.16-1.040-4.080-1.2zM21.12 15.84l-8.8 5.28v-10.56l8.8 5.28z"></path>
	</symbol>
	<!-- #endregion Social icons -->

	<symbol id="icon-star" viewBox="0 0 34 32">
		<path
			d="M14.89 2.282c0.737-2.268 3.945-2.268 4.682 0l2.080 6.402c0.33 1.014 1.275 1.701 2.341 1.701h6.731c2.384 0 3.376 3.051 1.447 4.453l-5.446 3.957c-0.863 0.627-1.224 1.738-0.894 2.752l2.080 6.402c0.737 2.268-1.859 4.154-3.788 2.752l-5.446-3.957c-0.863-0.627-2.031-0.627-2.894 0l-5.446 3.957c-1.929 1.402-4.525-0.484-3.788-2.752l2.080-6.402c0.33-1.014-0.031-2.125-0.894-2.752l-5.446-3.957c-1.929-1.402-0.938-4.453 1.447-4.453h6.731c1.066 0 2.012-0.687 2.341-1.701l2.080-6.402z"></path>
	</symbol>
	<symbol id="icon-heart" viewBox="0 0 32 32">
		<path stroke-linejoin="round" stroke-linecap="round" stroke-miterlimit="4"
			stroke-width="2.4"
			d="M27.787 6.147c-0.681-0.681-1.49-1.222-2.38-1.591s-1.844-0.559-2.807-0.559c-0.963 0-1.917 0.19-2.807 0.559s-1.699 0.909-2.38 1.591l-1.413 1.413-1.413-1.413c-1.376-1.376-3.241-2.148-5.187-2.148s-3.811 0.773-5.187 2.148c-1.376 1.376-2.148 3.241-2.148 5.187s0.773 3.811 2.148 5.187l11.787 11.787 11.787-11.787c0.681-0.681 1.222-1.49 1.591-2.38s0.559-1.844 0.559-2.807c0-0.963-0.19-1.917-0.559-2.807s-0.909-1.699-1.591-2.38z"></path>
	</symbol>
	<symbol id="icon-delete" viewBox="0 0 32 32">
		<path
			d="M9.333 28q-1.1 0-1.883-0.783t-0.783-1.883v-17.333h-1.333v-2.667h6.667v-1.333h8v1.333h6.667v2.667h-1.333v17.333q0 1.1-0.783 1.883t-1.883 0.783h-13.333zM22.667 8h-13.333v17.333h13.333v-17.333zM12 22.667h2.667v-12h-2.667v12zM17.333 22.667h2.667v-12h-2.667v12zM9.333 8v0z"></path>
	</symbol>
	<symbol id="quote" viewBox="0 0 34 32">
		<path fill="#f4f4f4" opacity="0.2" style="fill: var(--color1, #f4f4f4)"
			d="M32 16c0 8.837-7.163 16-16 16s-16-7.163-16-16c0-8.837 7.163-16 16-16s16 7.163 16 16z"></path>
		<path fill="#f4f4f4" style="fill: var(--color1, #f4f4f4)"
			d="M24.729 11.907c-0.268-0.313-0.746-0.354-1.066-0.093l-2.099 1.723-0.965-2.337c-0.034-0.088-0.086-0.161-0.146-0.226-0.197-0.429-0.54-0.797-1.012-1.010-0.205-0.091-0.417-0.14-0.628-0.164-0.047-0.024-0.089-0.055-0.142-0.071l-3.694-1.006c-0.207-0.055-0.416-0.020-0.586 0.078-0.203 0.067-0.377 0.211-0.46 0.42l-1.391 3.495c-0.151 0.38 0.042 0.809 0.432 0.959 0.388 0.147 0.828-0.042 0.98-0.424l1.175-2.951 1.683 0.457c-0.041 0.065-0.085 0.126-0.119 0.195l-2.157 4.568c-0.031 0.067-0.048 0.135-0.070 0.205l-2.621 4.294-4.387 1.434c-0.497 0.363-0.602 1.046-0.235 1.531 0.369 0.486 1.071 0.589 1.566 0.231l4.489-1.511c0.137-0.098 0.237-0.225 0.313-0.363 0.056-0.058 0.121-0.105 0.164-0.178l1.563-2.56 2.774 2.31-2.968 3.268c-0.409 0.451-0.368 1.145 0.095 1.543 0.462 0.402 1.17 0.36 1.582-0.093l3.704-4.078c0.115-0.126 0.184-0.271 0.23-0.422 0.028-0.082 0.028-0.168 0.034-0.253 0-0.043 0.017-0.082 0.013-0.122-0.010-0.299-0.134-0.589-0.385-0.796l-2.553-2.127c0.184-0.171 0.34-0.375 0.453-0.614l1.654-3.499 0.53 1.379c0.022 0.122 0.064 0.243 0.153 0.343 0.080 0.093 0.182 0.155 0.29 0.198 0.011 0.005 0.024 0.007 0.038 0.010 0.069 0.024 0.139 0.047 0.211 0.050 0.085 0.008 0.172-0.003 0.259-0.027 0.002-0.001 0.003-0.001 0.003-0.001 0.023-0.005 0.047-0.001 0.070-0.011 0.123-0.046 0.217-0.122 0.298-0.212l3.013-2.499c0.32-0.263 0.185-0.729-0.084-1.042z"></path>
		<path fill="#f4f4f4" style="fill: var(--color1, #f4f4f4)"
			d="M20.919 10.126c1.166 0 2.111-0.924 2.111-2.063s-0.945-2.063-2.111-2.063c-1.166 0-2.111 0.924-2.111 2.063s0.945 2.063 2.111 2.063z"></path>
	</symbol>
	<symbol id="commas" viewBox="0 0 32 32">
		<path fill="#f4f4f4" style="fill: var(--color1, #f4f4f4)"
			d="M8.2 17.469c1.546-0.612 2.785-0.452 3.719 0.481s1.21 2.421 0.831 4.462c-0.292 1.517-0.933 2.683-1.925 3.5-0.963 0.788-2.085 1.181-3.369 1.181-1.75 0-2.96-0.671-3.631-2.012-0.671-1.371-0.802-3.208-0.394-5.512 0.233-1.254 0.613-2.523 1.137-3.806s1.225-2.596 2.1-3.937c0.875-1.342 2.012-2.508 3.412-3.5s2.946-1.633 4.638-1.925l-0.438 4.638c-1.429 0.292-2.698 1.035-3.806 2.231-1.108 1.167-1.867 2.567-2.275 4.2zM21.369 17.469c1.546-0.612 2.785-0.452 3.719 0.481s1.21 2.421 0.831 4.462c-0.292 1.517-0.933 2.683-1.925 3.5-0.962 0.788-2.085 1.181-3.369 1.181-1.75 0-2.96-0.671-3.631-2.012-0.671-1.371-0.802-3.208-0.394-5.512 0.233-1.254 0.612-2.523 1.138-3.806s1.225-2.596 2.1-3.937c0.875-1.342 2.012-2.508 3.412-3.5s2.946-1.633 4.637-1.925l-0.437 4.638c-1.429 0.292-2.698 1.035-3.806 2.231-1.108 1.167-1.867 2.567-2.275 4.2z"></path>
	</symbol>
	<symbol id="gym" viewBox="0 0 34 32">
		<path fill="#242424" style="fill: var(--color1, #242424)"
			d="M32 16c0 8.837-7.163 16-16 16s-16-7.163-16-16c0-8.837 7.163-16 16-16s16 7.163 16 16z"></path>
		<path fill="#f4f4f4" style="fill: var(--color2, #f4f4f4)"
			d="M10.6 11.714h-1.2c-0.332 0-0.6 0.287-0.6 0.643v2.786h-0.6c-0.11 0-0.2 0.096-0.2 0.214v1.286c0 0.118 0.090 0.214 0.2 0.214h0.6v2.786c0 0.356 0.268 0.643 0.6 0.643h1.2c0.332 0 0.6-0.287 0.6-0.643v-7.286c0-0.356-0.268-0.643-0.6-0.643zM23.8 15.143h-0.6v-2.786c0-0.356-0.267-0.643-0.6-0.643h-1.2c-0.332 0-0.6 0.287-0.6 0.643v7.286c0 0.356 0.267 0.643 0.6 0.643h1.2c0.332 0 0.6-0.287 0.6-0.643v-2.786h0.6c0.11 0 0.2-0.096 0.2-0.214v-1.286c0-0.118-0.090-0.214-0.2-0.214zM19.4 10h-1.2c-0.332 0-0.6 0.287-0.6 0.643v4.5h-3.2v-4.5c0-0.356-0.268-0.643-0.6-0.643h-1.2c-0.332 0-0.6 0.287-0.6 0.643v10.714c0 0.356 0.268 0.643 0.6 0.643h1.2c0.332 0 0.6-0.287 0.6-0.643v-4.5h3.2v4.5c0 0.356 0.267 0.643 0.6 0.643h1.2c0.332 0 0.6-0.287 0.6-0.643v-10.714c0-0.356-0.267-0.643-0.6-0.643z"></path>
	</symbol>

	<symbol id="angle" viewBox="0 0 13 12">
		<path
			d="M2.83338 6.59169C2.75527 6.51422 2.69328 6.42205 2.65097 6.3205C2.60866 6.21895 2.58688 6.11003 2.58688 6.00002C2.58688 5.89001 2.60866 5.78109 2.65097 5.67954C2.69328 5.57799 2.75527 5.48582 2.83338 5.40835L6.65838 1.59168C6.73649 1.51421 6.79848 1.42204 6.84079 1.32049C6.8831 1.21894 6.90488 1.11002 6.90488 1.00001C6.90488 0.890001 6.8831 0.781079 6.84079 0.67953C6.79848 0.57798 6.73649 0.485812 6.65838 0.408343C6.50224 0.253134 6.29103 0.166016 6.07088 0.166016C5.85073 0.166016 5.63952 0.253134 5.48338 0.408343L1.65838 4.23335C1.19021 4.7021 0.927246 5.33752 0.927246 6.00002C0.927246 6.66252 1.19021 7.29794 1.65838 7.76669L5.48338 11.5917C5.6386 11.7457 5.8481 11.8324 6.06671 11.8334C6.17639 11.834 6.2851 11.813 6.38664 11.7715C6.48817 11.73 6.58051 11.6689 6.65838 11.5917C6.73649 11.5142 6.79848 11.4221 6.84079 11.3205C6.8831 11.219 6.90488 11.11 6.90488 11C6.90488 10.89 6.8831 10.7811 6.84079 10.6795C6.79848 10.578 6.73649 10.4858 6.65838 10.4084L2.83338 6.59169Z" />
	</symbol>

	<symbol id="arrow" viewBox="0 0 32 32">
		<path stroke="#242424" stroke-linejoin="round" stroke-linecap="round" stroke-miterlimit="4"
			stroke-width="2.7733"
			d="M16 29.867l13.867-13.867M29.867 16l-13.867-13.867M29.867 16h-27.733"></path>
	</symbol>

	<symbol id="criss-cross" viewBox="0 0 32 32">
		<path stroke="#242424" stroke-linejoin="round" stroke-linecap="round" stroke-miterlimit="4"
			stroke-width="2.6667" d="M22.667 9.333l-13.333 13.333M9.333 9.333l13.333 13.333"></path>
	</symbol>

	<symbol id="fluent_food" viewBox="0 0 43 32">
		<path
			d="M6.933 4.571h-3.2c-0.888 0-1.6 0.765-1.6 1.715v7.429h-1.6c-0.293 0-0.533 0.256-0.533 0.571v3.429c0 0.315 0.24 0.571 0.533 0.571h1.6v7.429c0 0.949 0.712 1.715 1.6 1.715h3.2c0.888 0 1.6-0.765 1.6-1.715v-19.429c0-0.949-0.715-1.715-1.6-1.715zM42.133 13.715h-1.6v-7.429c0-0.949-0.715-1.715-1.6-1.715h-3.2c-0.885 0-1.6 0.765-1.6 1.715v19.429c0 0.949 0.715 1.715 1.6 1.715h3.2c0.885 0 1.6-0.765 1.6-1.715v-7.429h1.6c0.293 0 0.533-0.256 0.533-0.571v-3.429c0-0.315-0.24-0.571-0.533-0.571zM30.4 0h-3.2c-0.885 0-1.6 0.765-1.6 1.715v12h-8.533v-12c0-0.949-0.715-1.715-1.6-1.715h-3.2c-0.885 0-1.6 0.765-1.6 1.715v28.571c0 0.949 0.715 1.715 1.6 1.715h3.2c0.888 0 1.6-0.765 1.6-1.715v-12h8.533v12c0 0.949 0.715 1.715 1.6 1.715h3.2c0.885 0 1.6-0.765 1.6-1.715v-28.571c0-0.949-0.715-1.715-1.6-1.715z"></path>
	</symbol>

	<symbol id="fluent_food_border" viewBox="0 0 32 32">
		<circle cx="16" cy="16" r="16" />
		<path
			d="M10.6 11.714H9.4c-.332 0-.6.287-.6.643v2.786h-.6c-.11 0-.2.096-.2.214v1.286c0 .118.09.214.2.214h.6v2.786c0 .356.268.643.6.643h1.2c.332 0 .6-.287.6-.643v-7.286c0-.356-.268-.643-.6-.643Zm13.2 3.429h-.6v-2.786c0-.356-.267-.643-.6-.643h-1.2c-.332 0-.6.287-.6.643v7.286c0 .356.267.643.6.643h1.2c.332 0 .6-.287.6-.643v-2.786h.6c.11 0 .2-.096.2-.214v-1.286c0-.118-.09-.214-.2-.214ZM19.4 10h-1.2c-.332 0-.6.287-.6.643v4.5h-3.2v-4.5c0-.356-.268-.643-.6-.643h-1.2c-.332 0-.6.287-.6.643v10.714c0 .356.268.643.6.643h1.2c.332 0 .6-.287.6-.643v-4.5h3.2v4.5c0 .356.267.643.6.643h1.2c.333 0 .6-.287.6-.643V10.643c0-.356-.267-.643-.6-.643Z" />
	</symbol>

	<symbol id="heart" viewBox="0 0 34 32">
		<path stroke-linejoin="round" stroke-linecap="round" stroke-miterlimit="4"
			stroke-width="2.5263"
			d="M29.25 4.787c-1.397-1.398-3.327-2.262-5.459-2.262s-4.062 0.865-5.459 2.262l-0 0-1.489 1.487-1.487-1.487c-1.397-1.397-3.327-2.261-5.459-2.261-4.264 0-7.721 3.457-7.721 7.721 0 2.132 0.864 4.062 2.261 5.459l12.406 12.408 12.408-12.408c1.397-1.397 2.261-3.327 2.261-5.459s-0.864-4.062-2.261-5.459v0z"></path>
	</symbol>

	<symbol id="inverted-commas" viewBox="0 0 36 32">
		<path
			d="M7.812 17.131c2.184-0.864 3.934-0.638 5.252 0.68s1.709 3.418 1.173 6.3c-0.41 2.142-1.318 3.789-2.716 4.941-1.359 1.111-2.946 1.668-4.757 1.668-2.472 0-4.179-0.947-5.126-2.842-0.949-1.933-1.133-4.527-0.557-7.782 0.329-1.769 0.866-3.561 1.606-5.372 0.742-1.813 1.732-3.665 2.965-5.559 1.237-1.896 2.842-3.543 4.819-4.941 1.849-1.331 4.058-2.287 6.452-2.704l0.095-0.014-0.617 6.547c-2.018 0.412-3.81 1.461-5.374 3.149-1.564 1.647-2.635 3.624-3.211 5.929zM26.404 17.131c2.184-0.864 3.934-0.638 5.252 0.68s1.707 3.418 1.173 6.3c-0.412 2.142-1.318 3.789-2.718 4.941-1.359 1.111-2.944 1.668-4.757 1.668-2.47 0-4.179-0.947-5.126-2.842-0.947-1.933-1.131-4.527-0.555-7.782 0.329-1.769 0.866-3.561 1.606-5.372 0.742-1.813 1.73-3.665 2.965-5.559 1.235-1.896 2.842-3.543 4.819-4.941 1.848-1.331 4.056-2.286 6.448-2.704l0.095-0.014-0.617 6.547c-2.018 0.412-3.808 1.461-5.372 3.149-1.566 1.647-2.635 3.624-3.213 5.929z"></path>
	</symbol>

	<symbol id="Logo" viewBox="0 0 176 32">
		<path
			d="M6.64 17.707l-6.64-11.040h3.973l4.453 7.653h0.053l4.453-7.653h3.973l-6.64 11.040v7.627h-3.627v-7.627z"></path>
		<path
			d="M16.894 22.267v-12.533l3.067-3.067h9.6l3.067 3.067v12.533l-3.067 3.067h-9.6l-3.067-3.067zM27.64 22.24l1.36-1.36v-9.76l-1.36-1.36h-5.76l-1.36 1.36v9.76l1.36 1.36h5.76z"></path>
		<path
			d="M35.166 22.133v-15.467h3.627v14.213l1.36 1.36h5.227l1.36-1.36v-14.213h3.627v15.467l-3.2 3.2h-8.8l-3.2-3.2z"></path>
		<path
			d="M67.837 19.147v6.187h-3.627v-5.36l-1.6-1.787h-5.813v7.147h-3.627v-18.667h11.707l2.853 2.88v5.653l-1.813 1.84 1.92 2.107zM56.797 15.2h6.427l0.933-0.933v-3.627l-0.933-0.933h-6.427v5.493z"></path>
		<path
			d="M77.098 6.667h13.493v3.067h-9.867v4.72h9.093v3.013h-9.093v4.8h9.867v3.067h-13.493v-18.667z"></path>
		<path
			d="M92.603 6.667h3.253l8.32 12.667h0.053v-12.667h3.493v18.667h-3.253l-8.32-12.64h-0.053v12.64h-3.493v-18.667z"></path>
		<path
			d="M110.53 6.667h13.493v3.067h-9.867v4.72h9.093v3.013h-9.093v4.8h9.867v3.067h-13.493v-18.667z"></path>
		<path
			d="M140.703 19.147v6.187h-3.627v-5.36l-1.6-1.787h-5.814v7.147h-3.627v-18.667h11.707l2.853 2.88v5.653l-1.813 1.84 1.92 2.107zM129.662 15.2h6.427l0.933-0.933v-3.627l-0.933-0.933h-6.427v5.493z"></path>
		<path
			d="M143.097 22.267v-12.533l3.067-3.067h9.28l3.013 3.013v2.853h-3.627v-1.52l-1.253-1.253h-5.493l-1.36 1.36v9.76l1.36 1.36h5.547l1.307-1.307v-2.907h-4v-3.093h7.52v7.333l-3.067 3.067h-9.227l-3.067-3.067z"></path>
		<path
			d="M165.104 17.707l-6.64-11.040h3.973l4.453 7.653h0.053l4.453-7.653h3.973l-6.64 11.040v7.627h-3.627v-7.627z"></path>
	</symbol>

	<symbol id="many-rays-star" viewBox="0 0 32 32">
		<path
			d="M14.254 13.506l0.363 0.372-4.466-12.797 5.321 12.466 0.018-0.52 0.441-13.027 0.441 13.026 0.018 0.521 0.204-0.479 5.117-11.987-4.466 12.797 9.465-9.702-8.787 10.32 12.331-5.628-11.922 6.449 13.531-0.793-13.446 1.707 12.904 4.148-13.155-3.266 10.534 8.53-11.086-7.797 6.741 11.759-7.521-11.276 2.038 13.4-2.94-13.231-2.94 13.232 1.96-12.886 0.078-0.515-0.288 0.433-7.233 10.843 6.741-11.758-0.426 0.299-10.661 7.499 10.535-8.53-13.156 3.266 12.904-4.148-13.446-1.707 13.531 0.793-11.922-6.449 12.331 5.628-8.787-10.32 9.102 9.33zM15.185 14.071l-0.646 0.4-0.458 0.607-0.208 0.731 0.070 0.757 0.339 0.68 0.562 0.512 0.709 0.275h0.76l0.709-0.274 0.562-0.512 0.339-0.681 0.070-0.757-0.208-0.731-0.459-0.607-0.645-0.4-0.748-0.14-0.747 0.14z"></path>
	</symbol>

	<symbol id="search" viewBox="0 0 32 32">
		<path stroke="#242424" stroke-linejoin="round" stroke-linecap="round" stroke-miterlimit="4"
			stroke-width="2.6667"
			d="M14.667 25.333c5.891 0 10.667-4.776 10.667-10.667s-4.776-10.667-10.667-10.667v0c-5.891 0-10.667 4.776-10.667 10.667s4.776 10.667 10.667 10.667v0zM28 28l-5.801-5.799"></path>
	</symbol>

	<symbol id="running-stick-figure-border" viewBox="0 0 32 32">
		<path fill="#242424" style="fill: var(--color1, #242424)"
			d="M32 16c0 8.837-7.163 16-16 16s-16-7.163-16-16c0-8.837 7.163-16 16-16s16 7.163 16 16z"></path>
		<path fill="#f4f4f4" style="fill: var(--color2, #f4f4f4)"
			d="M25.097 11.633c-0.146-0.173-0.363-0.282-0.605-0.282-0.193 0-0.37 0.069-0.507 0.184l0.001-0.001-2.188 1.837-1.007-2.493c-0.038-0.093-0.089-0.172-0.152-0.24l0 0c-0.214-0.478-0.583-0.855-1.042-1.073l-0.013-0.006c-0.191-0.087-0.413-0.148-0.645-0.173l-0.009-0.001c-0.049-0.027-0.093-0.060-0.148-0.077l-3.851-1.073c-0.062-0.017-0.133-0.027-0.206-0.027-0.149 0-0.289 0.041-0.408 0.113l0.004-0.002c-0.22 0.072-0.393 0.235-0.478 0.443l-0.002 0.005-1.449 3.728c-0.034 0.085-0.053 0.182-0.053 0.285 0 0.334 0.206 0.619 0.498 0.736l0.005 0.002c0.084 0.033 0.182 0.053 0.284 0.053 0.334 0 0.62-0.207 0.736-0.501l0.002-0.005 1.224-3.147 1.753 0.487c-0.043 0.069-0.088 0.135-0.123 0.208l-2.249 4.873c-0.032 0.072-0.049 0.144-0.072 0.219l-2.733 4.58-4.571 1.529c-0.289 0.215-0.475 0.556-0.475 0.94 0 0.645 0.523 1.168 1.168 1.168 0.261 0 0.502-0.086 0.696-0.23l-0.003 0.002 4.68-1.612c0.135-0.103 0.244-0.232 0.321-0.38l0.003-0.006c0.060-0.063 0.127-0.112 0.172-0.189l1.628-2.731 2.892 2.464-3.093 3.485c-0.19 0.207-0.306 0.484-0.306 0.787 0 0.644 0.522 1.167 1.167 1.167 0.354 0 0.671-0.157 0.885-0.406l0.001-0.002 3.861-4.348c0.12-0.135 0.192-0.289 0.24-0.451 0.029-0.088 0.029-0.18 0.036-0.271 0-0.047 0.017-0.088 0.013-0.131-0.006-0.34-0.159-0.642-0.398-0.848l-0.002-0.001-2.66-2.268c0.191-0.183 0.355-0.4 0.472-0.656l1.724-3.733 0.552 1.472c0.023 0.131 0.067 0.259 0.16 0.365 0.080 0.093 0.181 0.166 0.296 0.212l0.005 0.002 0.040 0.009c0.083 0.034 0.179 0.054 0.279 0.054 0.075 0 0.147-0.011 0.215-0.031l-0.005 0.001h0.004c0.024-0.007 0.048-0.003 0.072-0.013 0.124-0.051 0.229-0.128 0.31-0.225l0.001-0.001 3.141-2.663c0.333-0.28 0.193-0.777-0.088-1.112zM21.127 9.735c1.215 0 2.201-0.985 2.201-2.201s-0.985-2.201-2.201-2.201v0c-1.215 0-2.201 0.985-2.201 2.201s0.985 2.201 2.201 2.201v0z"></path>
	</symbol>

	<symbol id="running-stick-figure" viewBox="0 0 33 32">
		<path
			d="M29.647 9.451c-0.419-0.501-1.166-0.567-1.667-0.149l-3.282 2.757-1.509-3.739c-0.054-0.14-0.135-0.258-0.229-0.362-0.308-0.686-0.844-1.275-1.582-1.617-0.32-0.146-0.652-0.224-0.982-0.262-0.073-0.038-0.139-0.088-0.222-0.114l-5.775-1.61c-0.324-0.088-0.65-0.031-0.917 0.125-0.317 0.107-0.589 0.338-0.719 0.672l-2.175 5.592c-0.236 0.608 0.066 1.294 0.676 1.534 0.607 0.236 1.294-0.068 1.532-0.678l1.837-4.722 2.63 0.731c-0.064 0.104-0.133 0.201-0.185 0.312l-3.372 7.309c-0.049 0.107-0.075 0.217-0.109 0.328l-4.098 6.871-6.859 2.294c-0.776 0.58-0.941 1.674-0.367 2.45 0.577 0.778 1.674 0.943 2.448 0.369l7.018-2.417c0.215-0.156 0.371-0.36 0.489-0.58 0.088-0.094 0.189-0.168 0.256-0.284l2.443-4.096 4.337 3.696-4.641 5.23c-0.639 0.721-0.575 1.832 0.149 2.469 0.723 0.643 1.83 0.575 2.473-0.149l5.791-6.524c0.18-0.201 0.288-0.433 0.36-0.676 0.043-0.132 0.043-0.269 0.054-0.406 0-0.069 0.026-0.132 0.021-0.196-0.016-0.478-0.21-0.943-0.601-1.274l-3.991-3.403c0.288-0.274 0.532-0.6 0.709-0.983l2.585-5.599 0.828 2.206c0.035 0.196 0.1 0.388 0.239 0.549 0.125 0.149 0.284 0.248 0.454 0.317 0.017 0.009 0.038 0.010 0.059 0.016 0.107 0.038 0.216 0.075 0.329 0.080 0.133 0.012 0.269-0.005 0.405-0.043 0.004-0.002 0.005-0.002 0.005-0.002 0.036-0.009 0.073-0.002 0.109-0.017 0.192-0.073 0.34-0.196 0.466-0.34l4.71-3.998c0.501-0.421 0.289-1.166-0.132-1.667z"></path>
		<path
			d="M23.69 6.602c1.823 0 3.301-1.478 3.301-3.301s-1.478-3.301-3.301-3.301c-1.823 0-3.301 1.478-3.301 3.301s1.478 3.301 3.301 3.301z"></path>
	</symbol>

	<symbol id="menu-mobile-close" viewBox="0 0 32 32">
		<path stroke="#ffffff" stroke-linejoin="round" stroke-linecap="round" stroke-miterlimit="4"
			stroke-width="2" d="M24 8l-16 16M8 8l16 16"></path>
	</symbol>

	<symbol id="arrow-top-right" viewBox="0 0 32 32">
		<path stroke-linejoin="miter" stroke-linecap="butt" stroke-miterlimit="4"
			stroke-width="0.6857"
			d="M17.481 6.837v23.339h-2.487v-23.337l-11.666 11.666-1.755-1.755 14.665-14.665 14.667 14.667-1.755 1.755-11.669-11.673z"></path>
	</symbol>

	<symbol id="trash" viewBox="0 0 29 32">
		<path stroke-linejoin="round" stroke-linecap="round" stroke-miterlimit="4"
			stroke-width="2.4"
			d="M19.733 8v-1.067c0-1.493 0-2.24-0.29-2.81-0.261-0.505-0.662-0.906-1.152-1.159l-0.015-0.007c-0.57-0.29-1.317-0.29-2.81-0.29h-2.134c-1.493 0-2.24 0-2.81 0.29-0.502 0.256-0.91 0.664-1.166 1.166-0.29 0.57-0.29 1.317-0.29 2.81v1.067M11.733 15.333v6.667M17.067 15.333v6.667M2.4 8h24M23.733 8v14.933c0 2.24 0 3.36-0.435 4.216-0.391 0.756-0.992 1.358-1.727 1.738l-0.022 0.011c-0.854 0.435-1.976 0.435-4.216 0.435h-5.866c-2.24 0-3.36 0-4.216-0.435-0.756-0.391-1.358-0.992-1.738-1.727l-0.011-0.022c-0.435-0.856-0.435-1.976-0.435-4.216v-14.933"></path>
	</symbol>

	<symbol id="icon-star" viewBox="0 0 32 32">
		<path
			d="M14.254 13.505l0.363 0.372-4.466-12.797 5.321 12.466 0.018-0.52 0.441-13.027 0.441 13.026 0.018 0.52 5.321-12.466-4.466 12.797 9.465-9.702-8.787 10.32 12.331-5.628-11.922 6.449 13.531-0.793-13.446 1.707 12.904 4.148-13.155-3.266 10.534 8.53-11.087-7.798 6.741 11.759-7.521-11.276 2.038 13.4-2.94-13.232-2.94 13.232 2.038-13.4-7.521 11.276 6.741-11.759-11.087 7.798 10.534-8.53-13.155 3.266 12.904-4.148-13.446-1.707 13.531 0.793-11.922-6.449 12.331 5.628-8.787-10.32 9.102 9.33zM15.185 14.071l-0.646 0.4-0.458 0.607-0.208 0.731 0.070 0.757 0.339 0.68 0.562 0.512 0.709 0.275h0.76l0.709-0.275 0.562-0.512 0.339-0.68 0.070-0.757-0.208-0.731-0.458-0.607-0.646-0.4-0.747-0.14-0.747 0.14z"></path>
	</symbol>

	<symbol id="hero-star" fill="none" viewBox="0 0 60 60">
		<path fill="#242424" fill-rule="evenodd"
			d="m26.73 25.32.68.7-8.38-24 9.6 22.48.38.9.04-.98L29.87 0l.83 24.42.03.98.38-.9 9.6-22.47-8.05 23.07-.32.92.68-.7L50.08 7.83l-15.84 18.6-.63.75 23.12-10.55-21.5 11.62-.86.47.98-.06 24.4-1.43-25.22 3.2 24.2 7.78L35 32.32l-.95-.23.76.61 19 15.38-20-14.06-.8-.56.49.84 12.16 21.2L32.1 35.19l-.54-.82 3.82 25.13-5.5-24.81-5.52 24.8 3.67-24.15.15-.97-.54.82L14.08 55.5l12.15-21.2.49-.85-.8.56L5.93 48.08l19-15.38.75-.61-.94.23-23.72 5.89 23.26-7.48.93-.3L0 27.23l25.37 1.49-.86-.46-21.5-11.63 23.13 10.55L9.66 7.83l17.07 17.5Zm1.74 1.06-1.21.75-.86 1.14-.39 1.37.13 1.42.64 1.28 1.05.96 1.33.51h1.42l1.33-.51 1.06-.96.63-1.28.13-1.42-.39-1.37-.86-1.14-1.2-.75-1.4-.26-1.4.26Z"
			clip-rule="evenodd" />
	</symbol>
	<symbol id="icon-dumbbels" viewBox="0 0 32 32">
		<path
			d="M7.36 9.143h-1.92c-0.532 0-0.96 0.459-0.96 1.029v4.457h-0.96c-0.176 0-0.32 0.154-0.32 0.343v2.057c0 0.188 0.144 0.343 0.32 0.343h0.96v4.457c0 0.57 0.428 1.028 0.96 1.028h1.92c0.532 0 0.96-0.459 0.96-1.028v-11.657c0-0.57-0.428-1.029-0.96-1.029zM28.48 14.629h-0.96v-4.457c0-0.57-0.428-1.029-0.96-1.029h-1.92c-0.532 0-0.96 0.459-0.96 1.029v11.657c0 0.57 0.428 1.028 0.96 1.028h1.92c0.532 0 0.96-0.459 0.96-1.028v-4.457h0.96c0.176 0 0.32-0.154 0.32-0.343v-2.057c0-0.189-0.144-0.343-0.32-0.343zM21.44 6.4h-1.92c-0.532 0-0.96 0.459-0.96 1.029v7.2h-5.12v-7.2c0-0.57-0.428-1.029-0.96-1.029h-1.92c-0.532 0-0.96 0.459-0.96 1.029v17.143c0 0.57 0.428 1.029 0.96 1.029h1.92c0.532 0 0.96-0.459 0.96-1.029v-7.2h5.12v7.2c0 0.57 0.428 1.029 0.96 1.029h1.92c0.532 0 0.96-0.459 0.96-1.029v-17.143c0-0.57-0.428-1.029-0.96-1.029z"></path>
	</symbol>
	<symbol id="icon-quotes" viewBox="0 0 32 32">
		<path
			d="M8.201 17.469c1.546-0.613 2.785-0.452 3.719 0.481s1.21 2.421 0.831 4.463c-0.292 1.517-0.933 2.683-1.925 3.5-0.963 0.787-2.085 1.181-3.369 1.181-1.75 0-2.96-0.671-3.631-2.013-0.671-1.371-0.802-3.208-0.394-5.512 0.233-1.254 0.613-2.523 1.137-3.806s1.225-2.596 2.1-3.938c0.875-1.342 2.013-2.508 3.413-3.5s2.946-1.633 4.637-1.925l-0.437 4.638c-1.429 0.292-2.698 1.035-3.806 2.231-1.108 1.167-1.867 2.567-2.275 4.2zM21.37 17.469c1.546-0.613 2.785-0.452 3.719 0.481s1.21 2.421 0.831 4.463c-0.292 1.517-0.933 2.683-1.925 3.5-0.963 0.787-2.085 1.181-3.369 1.181-1.75 0-2.96-0.671-3.631-2.013-0.671-1.371-0.802-3.208-0.394-5.512 0.233-1.254 0.613-2.523 1.137-3.806s1.225-2.596 2.1-3.938c0.875-1.342 2.013-2.508 3.413-3.5s2.946-1.633 4.637-1.925l-0.437 4.638c-1.429 0.292-2.698 1.035-3.806 2.231-1.108 1.167-1.867 2.567-2.275 4.2z"></path>
	</symbol>
	<symbol id="icon-running-man" viewBox="0 0 32 32">
		<path
			d="M29.647 9.451c-0.419-0.501-1.166-0.567-1.667-0.149l-3.282 2.757-1.509-3.739c-0.054-0.14-0.135-0.258-0.229-0.362-0.308-0.686-0.844-1.275-1.582-1.617-0.32-0.146-0.652-0.224-0.982-0.262-0.073-0.038-0.139-0.088-0.222-0.114l-5.775-1.61c-0.324-0.088-0.65-0.031-0.917 0.125-0.317 0.107-0.589 0.338-0.719 0.672l-2.175 5.592c-0.236 0.608 0.066 1.294 0.676 1.534 0.607 0.236 1.294-0.068 1.532-0.678l1.837-4.722 2.63 0.731c-0.064 0.104-0.133 0.201-0.185 0.312l-3.372 7.309c-0.049 0.107-0.075 0.217-0.109 0.328l-4.098 6.871-6.859 2.294c-0.776 0.58-0.941 1.674-0.367 2.45 0.577 0.778 1.674 0.943 2.448 0.369l7.018-2.417c0.215-0.156 0.371-0.36 0.489-0.58 0.088-0.094 0.189-0.168 0.256-0.284l2.443-4.096 4.337 3.696-4.641 5.23c-0.639 0.721-0.575 1.832 0.149 2.469 0.723 0.643 1.83 0.575 2.473-0.149l5.791-6.524c0.18-0.201 0.288-0.433 0.36-0.676 0.043-0.132 0.043-0.269 0.054-0.406 0-0.069 0.026-0.132 0.021-0.196-0.016-0.478-0.21-0.943-0.601-1.274l-3.991-3.403c0.288-0.274 0.532-0.6 0.709-0.983l2.585-5.599 0.828 2.206c0.035 0.196 0.1 0.388 0.239 0.549 0.125 0.149 0.284 0.248 0.454 0.317 0.017 0.009 0.038 0.010 0.059 0.016 0.107 0.038 0.216 0.075 0.329 0.080 0.133 0.012 0.269-0.005 0.405-0.043 0.004-0.002 0.005-0.002 0.005-0.002 0.036-0.009 0.073-0.002 0.109-0.017 0.192-0.073 0.34-0.196 0.466-0.34l4.71-3.998c0.501-0.421 0.289-1.166-0.132-1.667z"></path>
		<path
			d="M23.69 6.602c1.823 0 3.301-1.478 3.301-3.301s-1.478-3.301-3.301-3.301c-1.823 0-3.301 1.478-3.301 3.301s1.478 3.301 3.301 3.301z"></path>
	</symbol>
	<symbol id="icon-trash" viewBox="0 0 32 32">
		<path stroke-linejoin="round" stroke-linecap="round" stroke-miterlimit="4"
			stroke-width="2.6"
			d="M21.333 8v-1.067c0-1.493 0-2.24-0.291-2.811-0.256-0.502-0.664-0.91-1.165-1.165-0.57-0.291-1.317-0.291-2.811-0.291h-2.133c-1.493 0-2.24 0-2.811 0.291-0.502 0.256-0.91 0.664-1.165 1.165-0.291 0.57-0.291 1.317-0.291 2.811v1.067M13.333 15.333v6.667M18.667 15.333v6.667M4 8h24M25.333 8v14.933c0 2.24 0 3.36-0.436 4.216-0.384 0.753-0.995 1.365-1.748 1.748-0.856 0.436-1.976 0.436-4.216 0.436h-5.867c-2.24 0-3.36 0-4.216-0.436-0.753-0.383-1.365-0.995-1.748-1.748-0.436-0.856-0.436-1.976-0.436-4.216v-14.933"></path>
	</symbol>
	<symbol id="icon-arrow" viewBox="0 0 32 32">
		<path stroke-linejoin="round" stroke-linecap="round" stroke-miterlimit="4"
			stroke-width="2.6" d="M15 28l13-13M28 15l-13-13M28 15h-26"></path>
	</symbol>
</svg>